<svg xmlns="http://www.w3.org/2000/svg" viewBox="1048.166 2701.017 30 29.983">
  <defs>
    <style>
      .cls-1 {
        fill: #fff;
      }
    </style>
  </defs>
  <path id="Tracé_23" data-name="Tracé 23" class="cls-1" d="M214.317.1a14.6,14.6,0,0,1,5.846,1.183,15.245,15.245,0,0,1,4.766,3.206,15.05,15.05,0,0,1,3.206,4.766A14.532,14.532,0,0,1,229.3,15.1a14.829,14.829,0,0,1-1.166,5.846,15.245,15.245,0,0,1-3.206,4.766,15.05,15.05,0,0,1-4.766,3.206,14.532,14.532,0,0,1-5.846,1.166,14.829,14.829,0,0,1-5.846-1.166,15.523,15.523,0,0,1-4.783-3.206,14.817,14.817,0,0,1-3.223-4.766A14.532,14.532,0,0,1,199.3,15.1a14.829,14.829,0,0,1,1.166-5.846,15.005,15.005,0,0,1,3.223-4.766,15.523,15.523,0,0,1,4.783-3.206A14.485,14.485,0,0,1,214.317.1Zm8.109,10.68a5.52,5.52,0,0,1-.857.274c-.291.069-.583.137-.891.189a3.615,3.615,0,0,0,.806-.72,3.987,3.987,0,0,0,.549-.943c-.309.137-.634.291-.96.429a4.093,4.093,0,0,1-1.046.291,2.614,2.614,0,0,0-.943-.72,2.947,2.947,0,0,0-1.234-.257,2.862,2.862,0,0,0-2.126.891,2.949,2.949,0,0,0-.891,2.177,4.33,4.33,0,0,0,.086.686,8.061,8.061,0,0,1-3.514-.943,9,9,0,0,1-2.76-2.263,3.21,3.21,0,0,0-.377,1.543,2.776,2.776,0,0,0,1.32,2.52,2.806,2.806,0,0,1-1.371-.343v.034a2.913,2.913,0,0,0,.686,1.937,2.964,2.964,0,0,0,1.714,1.046,2.661,2.661,0,0,1-.36.069,3.449,3.449,0,0,1-.446.017,2.619,2.619,0,0,1-.514-.086,2.816,2.816,0,0,0,1.029,1.491,3.019,3.019,0,0,0,1.8.634,5.866,5.866,0,0,1-3.754,1.286h-.72a8.145,8.145,0,0,0,2.177.994,8.516,8.516,0,0,0,2.469.36,8.4,8.4,0,0,0,3.72-.789,8.565,8.565,0,0,0,2.709-2.023,8.908,8.908,0,0,0,2.194-5.846V12.34a6,6,0,0,0,.857-.754C222,11.329,222.22,11.054,222.426,10.78Z" transform="translate(848.866 2700.917)"/>
</svg>
