<svg xmlns="http://www.w3.org/2000/svg" viewBox="1116.514 2701 30 30">
  <defs>
    <style>
      .cls-1 {
        fill: #fff;
      }
    </style>
  </defs>
  <path id="Tracé_25" data-name="Tracé 25" class="cls-1" d="M613,0a15,15,0,1,0,15,15A14.995,14.995,0,0,0,613,0Zm-5.623,21.514a6.181,6.181,0,0,1-4.1-4.886,5.892,5.892,0,0,1-.069-.96,6.213,6.213,0,0,1,10.3-4.646c-.5.549-1.011,1.1-1.56,1.611a4.357,4.357,0,0,0-3.651-.72,3.9,3.9,0,1,0,2.64,7.337,3.383,3.383,0,0,0,2.006-2.349c-1.183-.017-2.366-.017-3.549-.034V14.76c1.971,0,3.943-.017,5.914,0a7.058,7.058,0,0,1-1.251,4.954A6.085,6.085,0,0,1,607.377,21.514Zm15.309-4.971c-.583,0-1.183,0-1.766.017,0,.583-.017,1.183-.017,1.766h-1.766c0-.583,0-1.183-.017-1.766-.583,0-1.183-.017-1.766-.017V14.794c.583,0,1.183,0,1.766-.017,0-.583.017-1.183.017-1.766H620.9c0,.583,0,1.183.017,1.766.583,0,1.183.017,1.766.017Z" transform="translate(518.514 2701)"/>
</svg>
