<svg xmlns="http://www.w3.org/2000/svg" viewBox="1082.331 2701 30 30">
  <defs>
    <style>
      .cls-1 {
        fill: #fff;
      }
    </style>
  </defs>
  <path id="Tracé_24" data-name="Tracé 24" class="cls-1" d="M413.583,30a14.829,14.829,0,0,1-5.846-1.166,15.006,15.006,0,0,1-4.766-3.223,15.523,15.523,0,0,1-3.206-4.783,14.532,14.532,0,0,1-1.166-5.846,14.828,14.828,0,0,1,1.166-5.846,15.244,15.244,0,0,1,3.206-4.766,15.051,15.051,0,0,1,4.766-3.206,15.24,15.24,0,0,1,11.691,0,15.523,15.523,0,0,1,4.783,3.206,14.817,14.817,0,0,1,3.223,4.766,14.533,14.533,0,0,1,1.166,5.846,14.829,14.829,0,0,1-1.166,5.846,15.077,15.077,0,0,1-8.006,8.006A14.828,14.828,0,0,1,413.583,30ZM409.349,6.48a1.517,1.517,0,0,0-1.149.5,1.646,1.646,0,0,0-.463,1.166,1.55,1.55,0,0,0,.463,1.149,1.578,1.578,0,0,0,1.149.463,1.551,1.551,0,0,0,1.149-.463,1.578,1.578,0,0,0,.463-1.149,1.617,1.617,0,0,0-.463-1.166A1.517,1.517,0,0,0,409.349,6.48Zm1.32,4.269h-2.64V19.92h2.64Zm1.286,9.189h2.64v-5.9a2.022,2.022,0,0,1,.686-.463,2.678,2.678,0,0,1,.686-.171,1.274,1.274,0,0,1,.771.171.841.841,0,0,1,.326.326.822.822,0,0,1,.154.446v5.589h2.606V14.331a3.7,3.7,0,0,0-1.8-3.069,3.985,3.985,0,0,0-1.68-.429,3.415,3.415,0,0,0-1.731.343v-.429h-2.64v9.189Z" transform="translate(683.731 2701)"/>
</svg>
