<svg xmlns="http://www.w3.org/2000/svg" viewBox="1014 2701 29.966 30">
  <defs>
    <style>
      .cls-1 {
        fill: #fff;
      }
    </style>
  </defs>
  <path id="Tracé_22" data-name="Tracé 22" class="cls-1" d="M14.983,30a14.828,14.828,0,0,1-5.846-1.166,15.245,15.245,0,0,1-4.766-3.206,15.051,15.051,0,0,1-3.206-4.766A14.828,14.828,0,0,1,0,15.017,14.828,14.828,0,0,1,1.166,9.171,15.523,15.523,0,0,1,4.371,4.389,14.822,14.822,0,0,1,14.983,0a14.828,14.828,0,0,1,5.846,1.166,15.005,15.005,0,0,1,4.766,3.223A15.523,15.523,0,0,1,28.8,9.171a14.532,14.532,0,0,1,1.166,5.846A14.829,14.829,0,0,1,28.8,20.863a15.245,15.245,0,0,1-3.206,4.766,15.051,15.051,0,0,1-4.766,3.206A14.828,14.828,0,0,1,14.983,30ZM11.091,15.531H13.3v6.737H16.08V15.531h2.777V12.754H16.08V11.349a1.026,1.026,0,0,1,.171-.6.48.48,0,0,1,.377-.257h2.229V7.766H16.646A3.107,3.107,0,0,0,14.3,8.829a3.661,3.661,0,0,0-.977,2.554v1.371H11.091Z" transform="translate(1014 2701)"/>
</svg>
